# xmcd
#
# Track frame offsets:
#	150
#	17310
#	32417
#	46107
#
# Disc length: 823 seconds
#
# Revision: 0
# Processed by: cddbd v1.5.2PL0 Copyright (c) Steve Scherf et al.
# Submitted via: audiograbber 1.83.01
#
DISCID=1b033504
DTITLE=Lunarsphere - Aurora Borealis
DYEAR=2010
DGENRE=Death Metal
TTITLE0=Atom Sized Heart
TTITLE1=Paracitizen
TTITLE2=Aurora Borealis
TTITLE3=String Phenomena
EXTD=
EXTT0=
EXTT1=
EXTT2=
EXTT3=
PLAYORDER=
